<svg width="79" height="114" viewBox="0 0 79 114" fill="none" xmlns="http://www.w3.org/2000/svg">
<path d="M5.23242 0.250076C3.16172 0.895782 1.51406 2.36531 0.623437 4.28015C0.111328 5.37117 0.111328 5.57156 0.0445312 13.988C-0.0222656 22.4266 -0.0222656 22.5825 0.445312 23.1614C1.06875 23.9407 2.04844 23.963 2.7832 23.2059L3.33984 22.6716V14.5223C3.33984 8.10984 3.40664 6.23953 3.65156 5.66062C4.00781 4.79227 5.00977 3.83484 5.85586 3.52312C6.30117 3.345 16.6992 3.2782 39.4324 3.2782C66.9082 3.2782 72.4969 3.32273 73.098 3.58992C73.9664 3.94617 74.9238 4.94812 75.2355 5.79422C75.4137 6.23953 75.4805 18.3298 75.4805 45.1598V83.8798H69.2684C63.3457 83.8798 63.0562 83.902 62.4773 84.3473C61.7203 84.9485 61.6758 86.0618 62.4105 86.7298C62.9227 87.2196 63.0785 87.2196 69.2016 87.2196H75.4805V97.395C75.4805 108.817 75.525 108.461 73.8551 109.797L72.9867 110.487L40.0113 110.554C21.8648 110.576 6.67969 110.554 6.27891 110.487C5.38828 110.331 4.03008 109.174 3.65156 108.216C3.40664 107.637 3.33984 105.366 3.33984 97.3505V87.2196H30.1477H56.9777L57.423 86.6407C58.0465 85.8614 58.0019 85.1044 57.334 84.4364L56.7996 83.8798H30.0586H3.33984V56.3817V28.8614L2.7832 28.327C2.04844 27.57 1.06875 27.5923 0.467578 28.3493L0 28.9505L0.0445312 68.7169L0.111328 108.483L0.645703 109.641C1.29141 111.111 3.11719 112.825 4.56445 113.404C5.65547 113.805 6.63516 113.827 39.5215 113.827H73.3652L74.523 113.293C75.9926 112.647 77.707 110.821 78.2859 109.374C78.709 108.283 78.709 107.081 78.709 56.9384C78.709 6.79617 78.709 5.59383 78.2859 4.50281C77.707 3.05554 75.9926 1.22977 74.523 0.584061L73.3652 0.0496826L39.7441 0.00515747C13.0699 -0.0171127 5.94492 0.02742 5.23242 0.250076Z" fill="#B54E21"/>
<path d="M26.4293 11.1157C25.4942 11.8505 25.6055 13.4759 26.6297 13.9434C27.0305 14.1216 30.7488 14.1884 39.4102 14.1884C48.0715 14.1884 51.7899 14.1216 52.1906 13.9434C52.9477 13.5872 53.2371 12.6743 52.8809 11.8059C52.725 11.4497 52.4356 11.0712 52.2129 10.9821C52.0125 10.9153 46.2012 10.8485 39.3211 10.8485C29.6578 10.8485 26.7188 10.9153 26.4293 11.1157Z" fill="#B54E21"/>
<path d="M43.9301 18.8641C43.5516 19.0868 43.1063 19.4876 42.9949 19.7325C42.8613 19.9774 42.75 21.4247 42.75 22.961V25.7442L29.6578 25.811C17.5898 25.8778 16.5211 25.9001 15.9645 26.2786C14.6731 27.1247 14.584 27.4809 14.5172 32.2458C14.4281 37.1442 14.584 38.0571 15.5859 39.0145L16.2762 39.6825L29.5242 39.7493L42.75 39.7938V42.6661C42.75 45.427 42.7723 45.5829 43.3289 46.2286C44.0191 47.0524 45.1324 47.4087 46.1566 47.1192C47.025 46.8743 63.1676 35.1403 63.7688 34.3165C64.2586 33.6485 64.3031 32.3348 63.8801 31.4887C63.6129 30.9766 52.7027 22.8274 47.693 19.3762C46.0898 18.2852 45.0879 18.1516 43.9301 18.8641ZM53.5266 27.7258C57.2004 30.3977 60.2285 32.6911 60.2731 32.8024C60.3176 32.9583 46.8691 42.8887 46.3348 43.0891C46.2234 43.1114 46.1121 42.0649 46.0453 40.7512C45.934 38.213 45.6668 37.4114 44.6648 36.8325C44.3309 36.6321 40.7461 36.543 31.0606 36.454L17.9238 36.3426V32.7801V29.2176L31.2164 29.1063L44.5313 28.995L45.0879 28.4161C45.8227 27.7036 46.0676 26.6126 46.0898 24.2524C46.0898 22.5602 46.1121 22.4266 46.4906 22.627C46.691 22.7383 49.875 25.0317 53.5266 27.7258Z" fill="#B54E21"/>
<path d="M24.0246 56.9606C19.4379 60.2782 15.4746 63.2395 15.2074 63.5512C14.5172 64.3751 14.4058 65.288 14.8734 66.3122C15.2074 67.0692 16.4098 68.0266 23.8019 73.4149C32.2629 79.5825 32.3742 79.6493 33.4652 79.6493C34.4004 79.6493 34.6676 79.538 35.3133 78.8923L36.0703 78.1352V75.2184V72.3239L49.1625 72.2571C61.2305 72.1903 62.2992 72.168 62.8559 71.7895C64.1918 70.9212 64.2363 70.6762 64.2363 65.2657C64.2363 60.6122 64.2141 60.2782 63.7687 59.677C62.8336 58.4079 62.2547 58.2743 57.1781 58.2743C52.2797 58.2743 51.6562 58.3856 51.2332 59.3208C50.8992 60.0778 50.9215 60.3673 51.4558 61.013L51.9012 61.6141L56.3988 61.6587L60.8965 61.7255V65.288V68.8505L47.6262 68.9618C34.7566 69.0731 34.3113 69.0954 33.8437 69.5184C33.0199 70.2532 32.8863 70.743 32.7527 73.2591L32.6191 75.686L25.6277 70.6094C21.7758 67.804 18.614 65.3993 18.614 65.288C18.614 65.0876 32.1961 55.0012 32.5301 54.9567C32.6191 54.9344 32.7082 56.0032 32.775 57.3169C32.8863 59.9665 33.0867 60.5454 34.1332 61.1688C34.7789 61.5696 35.291 61.6141 40.4789 61.6141C45.8004 61.6141 46.1121 61.5919 46.5351 61.1688C47.2031 60.5009 47.1363 59.3208 46.4016 58.7419C45.8449 58.2966 45.5332 58.2743 40.9465 58.2743H36.0703V55.3575V52.4407L35.3133 51.6837C34.6453 51.0157 34.4004 50.9266 33.443 50.9266C32.3519 50.9266 32.2629 50.9934 24.0246 56.9606Z" fill="#B54E21"/>
<path d="M31.7953 90.8934C29.3906 91.5391 27.1195 93.5876 26.2734 95.8364C25.7391 97.2837 25.6277 99.488 26.0508 101.024C26.6742 103.318 28.6336 105.5 30.9047 106.413C32.1293 106.902 32.3742 106.925 39.4102 106.925C46.4461 106.925 46.691 106.902 47.9156 106.413C48.6059 106.123 49.6746 105.455 50.2981 104.899C52.2129 103.162 53.059 101.247 53.0367 98.5528C52.9922 94.968 50.4984 91.8286 46.9359 90.8712C45.3328 90.4481 33.3539 90.4704 31.7953 90.8934ZM46.1789 94.1442C48.2496 94.6563 49.6969 96.5712 49.6969 98.7977C49.6969 100.757 48.8063 102.182 46.9805 103.162C46.268 103.54 45.6223 103.585 39.4102 103.585C33.1981 103.585 32.5524 103.54 31.8399 103.162C30.0141 102.182 29.1234 100.757 29.1234 98.7977C29.1234 96.7048 30.3703 94.9012 32.3297 94.1887C33.3094 93.8548 44.843 93.8102 46.1789 94.1442Z" fill="#B54E21"/>
</svg>
