<svg width="100" height="100" viewBox="0 0 100 100" fill="none" xmlns="http://www.w3.org/2000/svg">
<path d="M4.49219 0.226318C4.0625 0.363037 3.4375 0.616943 3.125 0.773193C2.1875 1.26147 0.78125 2.9021 0.371094 3.95679C0 4.91382 0 6.04663 0 50.0505V95.1677L0.46875 96.1833C1.03516 97.4724 2.63672 98.9763 3.90625 99.4841C4.86328 99.8552 5.91797 99.8552 49.9023 99.8552C93.8867 99.8552 94.9414 99.8552 95.8984 99.4841C97.168 98.9763 98.7695 97.4724 99.3359 96.1833L99.8047 95.1677V54.2498V13.3318L99.3945 12.4333C98.8867 11.3396 97.9102 10.2068 96.9336 9.60132C95.2344 8.5271 95.9766 8.54663 69.7852 8.54663C52.2461 8.54663 45.4883 8.60522 45.1367 8.76147C44.1406 9.21069 44.0625 10.7732 45 11.2615C45.2734 11.4177 52.9297 11.4763 69.668 11.4763C95.4297 11.4958 94.8242 11.4763 95.8398 12.3943C96.6211 13.0779 96.9727 14.1912 96.9727 16.0076C96.9727 16.9646 96.9531 17.7263 96.9336 17.7263C96.8945 17.7263 96.4062 17.5505 95.8398 17.3357C94.8242 16.9451 94.3359 16.9451 54.1016 16.9451C13.6523 16.9451 13.3789 16.9451 12.3242 17.3357C10.918 17.863 9.60938 19.0544 8.94531 20.4216L8.39844 21.5349L8.33984 31.7693L8.28125 42.0037L8.71094 42.4529C9.29688 43.0779 10.1367 43.0583 10.7422 42.4333L11.2305 41.9646V32.1404V22.3162L11.6797 21.5349C11.9336 21.1052 12.4609 20.5779 12.8906 20.324L13.6719 19.8748H54.082H94.4922L95.332 20.363C96.4062 20.988 96.9727 22.1208 96.9727 23.6443C96.9727 24.2498 96.9336 24.7576 96.8945 24.7576C96.8555 24.7576 96.4062 24.5623 95.8789 24.3083L94.9219 23.8787H58.2031C27.5195 23.8787 21.3281 23.9177 20.5469 24.1521C18.6328 24.699 16.8359 26.4958 16.2891 28.4099C16.0547 29.1912 16.0156 33.3513 16.0156 52.3552V75.3826L16.582 75.8708C17.1875 76.3982 17.8711 76.3591 18.4961 75.7927C18.8086 75.4998 18.8477 73.9958 18.8867 52.4138C18.9453 27.1599 18.8672 28.8201 20.0586 27.7654C21.1719 26.7498 18.8867 26.8083 57.4219 26.7498C83.2422 26.7107 93.6133 26.7498 94.2383 26.906C95.4297 27.2185 96.2891 27.9021 96.6602 28.8982C96.9531 29.6599 96.9727 32.7263 96.9336 62.2966L96.875 94.8357L96.2891 95.5779C95.957 95.9685 95.3906 96.4568 95.0195 96.6521C94.375 97.0037 93.0273 97.0232 58.0078 97.0232C23.0078 97.0232 21.6602 97.0037 20.8789 96.6521C19.9609 96.2419 19.375 95.4998 19.0625 94.3865C18.9258 93.8787 18.8477 91.2419 18.8477 87.0427C18.8477 80.7146 18.8281 80.4607 18.457 80.1287C17.9102 79.6404 16.9727 79.6794 16.4453 80.2068C16.0156 80.6169 16.0156 80.6755 16.0156 87.8044C16.0156 94.8162 16.0156 94.9919 16.4648 95.9294C16.6992 96.4568 16.8945 96.906 16.8945 96.9451C16.8945 97.1599 13.8672 96.9841 13.3203 96.7498C12.5586 96.4373 11.7188 95.5583 11.4453 94.8162C11.2891 94.4451 11.2305 86.906 11.2305 70.8318V47.3943L10.7422 46.9255C10.1367 46.3005 9.29688 46.281 8.73047 46.8865L8.30078 47.3552L8.33984 71.3591L8.39844 95.363L8.84766 96.2029L9.29688 97.0623L7.16797 96.9841C5.11719 96.9255 4.98047 96.906 4.27734 96.3396C3.88672 96.0076 3.39844 95.4412 3.20312 95.0701C2.85156 94.4255 2.83203 92.863 2.83203 49.9529C2.83203 7.04272 2.85156 5.48022 3.20312 4.83569C3.39844 4.4646 3.88672 3.89819 4.27734 3.56616L5.01953 2.98022L10.5273 2.92163C15.9375 2.86304 16.0352 2.86304 16.8164 3.31226C17.2852 3.56616 18.8672 5.12866 20.5664 7.02319C23.0273 9.71851 23.7109 10.363 24.6484 10.8318L25.7812 11.3787L32.832 11.4373C39.4922 11.4958 39.9023 11.4763 40.332 11.1248C40.9961 10.5974 40.957 9.60132 40.2539 8.99585L39.7266 8.54663H33.1641C27.5781 8.54663 26.5234 8.50757 25.957 8.23413C25.5859 8.05835 24.043 6.51538 22.3438 4.64038C19.9609 1.9646 19.1602 1.22241 18.1836 0.695068L16.9922 0.0505371L11.1328 0.0114746C6.75781 -0.0275879 5.07812 0.0310059 4.49219 0.226318Z" fill="#B54E21"/>
<path d="M48.0468 47.6873C46.5234 48.0584 45.2929 48.742 44.0234 49.8943C40.957 52.7459 40.2539 57.0232 42.2265 60.7732C42.5976 61.4763 44.6875 63.7224 49.2187 68.2927C52.7539 71.867 56.0156 75.0506 56.4257 75.3631C57.2851 75.9881 58.2031 76.1052 59.0429 75.656C59.7656 75.2654 72.9882 61.9256 73.5156 61.0662C75.2929 58.0584 75.0976 53.9373 73.0468 51.1443C70.4297 47.5896 65.7422 46.4568 61.7773 48.4295C61.1328 48.7615 59.9804 49.6013 59.2578 50.3045L57.9101 51.5545L56.4843 50.2068C54.9414 48.742 53.9648 48.1756 52.1484 47.7068C50.8007 47.3552 49.414 47.3552 48.0468 47.6873ZM52.5195 50.9099C53.0468 51.1443 54.1015 51.9451 54.9609 52.7654C56.6992 54.4451 57.0312 54.6404 58.1054 54.6404C58.8476 54.6404 59.0429 54.5037 60.6054 53.0193C62.832 50.9099 63.75 50.4607 65.8203 50.4607C67.6562 50.4607 68.8672 50.949 70.0781 52.1599C71.25 53.3318 71.7773 54.6404 71.7773 56.4177C71.7773 58.9763 71.5625 59.2498 64.3164 66.5154L58.0078 72.8045L51.3476 66.1248C44.9023 59.6404 44.6875 59.3865 44.3359 58.2732C42.8125 53.2927 47.7929 48.8201 52.5195 50.9099Z" fill="#B54E21"/>
<path d="M70.5078 82.9998C69.6094 83.7029 69.4336 84.4255 69.4336 87.3552C69.4336 90.3826 69.6484 91.1248 70.6445 91.7498C71.2695 92.1208 71.6016 92.1404 80.7617 92.1404C89.8047 92.1404 90.2539 92.1208 90.8594 91.7498C91.9336 91.1052 92.0898 90.5388 92.0898 87.3552C92.0898 84.1716 91.9141 83.488 90.9375 82.9021C90.4297 82.6091 89.4727 82.5701 80.7031 82.5701C71.0938 82.5701 71.0547 82.5701 70.5078 82.9998ZM89.1602 87.3552V89.2107H80.7617H72.3633V87.3552V85.4998H80.7617H89.1602V87.3552Z" fill="#B54E21"/>
</svg>
