<svg width="61" height="103" viewBox="0 0 61 103" fill="none" xmlns="http://www.w3.org/2000/svg">
<path d="M26.4818 0.14756C21.875 0.710838 17.0871 2.52139 13.1039 5.21709C10.6496 6.88682 6.78707 10.7493 5.1777 13.1835C2.90445 16.6235 1.29508 20.4257 0.409923 24.4692C-0.133241 26.8833 -0.133241 33.6628 0.389806 36.1372C0.912853 38.5312 1.95895 41.6292 2.96481 43.6208C3.4275 44.5261 7.22965 51.2452 11.4341 58.5075C15.6386 65.7899 19.0183 71.8251 18.9379 71.9458C18.8775 72.0464 18.6562 72.147 18.4752 72.147C17.8515 72.147 13.6068 73.696 13.2045 74.0581C12.6009 74.6013 12.6613 75.8687 13.305 76.2911C13.9287 76.7136 14.5322 76.613 17.1675 75.6876C18.2941 75.2853 19.5816 74.9231 20.0041 74.8427L20.7886 74.722L23.947 80.214C25.6972 83.2517 27.3468 86.0077 27.5882 86.3497C28.2923 87.2751 29.3384 87.6976 30.6259 87.597C32.3761 87.4562 32.6578 87.1142 36.4197 80.5962L39.8195 74.722L40.5839 74.8427C41.8111 75.0438 44.9494 76.1302 46.9209 77.0757C50.5017 78.7454 53.117 80.9583 54.4447 83.4126C55.1086 84.6599 55.1488 84.8208 55.1488 86.7319C55.1488 88.5425 55.0884 88.8644 54.5654 89.9306C52.9963 93.1493 48.8119 96.1267 43.3601 97.9171C32.5773 101.458 18.7568 100.15 10.6496 94.7989C8.81891 93.612 6.78707 91.4394 6.04274 89.9306C5.51969 88.8644 5.45934 88.5425 5.45934 86.7319C5.45934 84.8208 5.49957 84.6599 6.16344 83.4126C6.5859 82.628 7.49117 81.4813 8.41656 80.5358C9.66383 79.2886 9.9857 78.8661 9.9857 78.3833C9.9857 77.5585 9.36207 76.9751 8.47692 76.9751C7.85328 76.9751 7.55153 77.1763 6.08297 78.6247C3.44762 81.2601 2.34117 83.654 2.34117 86.7118C2.34117 88.6431 2.66305 89.9909 3.52809 91.6003C6.40485 96.9917 13.6671 100.935 23.4642 102.464C26.683 102.946 33.905 102.946 37.1439 102.464C48.2285 100.754 56.3156 95.6841 57.9853 89.3673C58.3877 87.8384 58.3474 85.3036 57.8646 83.7546C57.0197 81.0187 54.6257 78.2022 51.2662 76.0095C49.1539 74.6415 47.1623 73.7161 44.1045 72.7103C42.7767 72.2878 41.6502 71.8854 41.6099 71.8452C41.5496 71.805 43.3199 68.6667 45.5127 64.8646C47.7054 61.0825 49.5361 57.7229 49.5763 57.4212C49.6769 56.7774 48.8722 55.8521 48.2084 55.8521C47.4238 55.8521 47.0214 56.2544 45.9754 58.0247L44.9494 59.8151L42.8974 59.2317C34.9109 56.9786 25.5765 56.9786 17.7308 59.2317C15.9203 59.7548 15.699 59.7749 15.4978 59.4933C14.5121 58.0851 5.72086 42.4942 5.09723 41.0659C4.65465 40.0601 4.03102 38.2093 3.70914 36.9419C2.90445 33.9042 2.70328 29.3376 3.22633 26.0786C4.5943 17.4483 10.3076 9.68311 18.1332 5.78037C20.3058 4.71416 22.2572 4.05029 24.7316 3.50713C26.4013 3.14502 27.4273 3.06455 30.3041 3.06455C33.1808 3.06455 34.2068 3.14502 35.8765 3.50713C41.3484 4.69404 45.6937 7.04775 49.6166 10.9907C52.775 14.1491 54.9275 17.6495 56.3558 21.9345C57.4019 25.0325 57.7238 27.5472 57.6031 31.4097C57.4422 36.9419 56.4363 39.9192 52.272 47.1212C50.9242 49.4548 49.8177 51.5872 49.8177 51.8688C49.8177 53.0558 51.5679 53.6794 52.3726 52.7741C52.8554 52.231 56.4765 45.9343 57.6433 43.6208C58.6492 41.6292 59.6953 38.5312 60.2183 36.1372C60.7414 33.6628 60.7414 26.8833 60.1982 24.4692C58.8504 18.253 56.1546 13.3042 51.7289 8.8583C47.3232 4.4124 42.4347 1.77705 36.2588 0.509666C33.9252 0.0268555 28.8959 -0.154198 26.4818 0.14756ZM36.7416 61.002C38.8136 61.3038 42.5755 62.1487 43.0785 62.4505C43.4406 62.6517 30.7668 84.6196 30.3041 84.6196C29.8615 84.6196 17.1675 62.6517 17.5095 62.4505C18.4148 61.9476 24.3293 60.821 27.2865 60.5997C29.2781 60.4589 34.589 60.6802 36.7416 61.002Z" fill="#B54E21"/>
<path d="M27.3871 9.52214C19.5816 10.7493 13.2648 16.2815 11.1123 23.745C10.8306 24.7106 10.5892 25.7768 10.5892 26.0987C10.5892 27.3661 12.1383 28.0098 13.0435 27.1247C13.2447 26.9235 13.5867 26.0585 13.808 25.1733C15.8197 17.3075 22.9211 12.077 31.0886 12.4593C33.7642 12.58 35.6351 13.0628 37.8078 14.129C43.7222 17.0862 47.2629 22.7995 47.2629 29.3979C47.2629 34.9704 44.6476 40.0198 40.0609 43.2989C35.1322 46.8194 28.0912 47.3425 22.6595 44.5864C18.3545 42.3936 15.015 38.2897 13.8885 33.8438C13.4258 31.9528 13.2246 31.5706 12.5607 31.2889C12.0377 31.0878 11.8566 31.0878 11.414 31.3292C10.549 31.812 10.4484 32.5161 10.9312 34.4473C12.7619 41.5286 18.3947 47.0608 25.6168 48.8512C27.9906 49.4548 32.2756 49.495 34.6293 48.9317C40.5638 47.5637 45.5529 43.6409 48.2084 38.2495C50.5017 33.5823 50.9443 28.7139 49.516 23.7852C47.6049 17.1667 42.4146 12.0368 35.6351 10.0653C34.1263 9.62273 33.3418 9.52214 30.9076 9.48191C29.2982 9.44168 27.7291 9.4618 27.3871 9.52214Z" fill="#B54E21"/>
<path d="M24.0878 22.2966C23.8263 22.3771 23.4843 22.6185 23.3435 22.8196C22.7198 23.6243 22.9814 24.0468 25.6167 26.7224L28.1716 29.2974L25.6167 31.8724C22.8607 34.6687 22.6796 35.0106 23.4843 36.0165C23.7659 36.3786 24.0878 36.5396 24.5304 36.5396C25.0736 36.5396 25.5363 36.1774 27.729 33.9847L30.304 31.4097L32.879 33.9847C35.0718 36.1774 35.5345 36.5396 36.0777 36.5396C36.5202 36.5396 36.8421 36.3786 37.1238 36.0165C37.9284 35.0106 37.7474 34.6687 34.9913 31.8724L32.4364 29.2974L34.9913 26.7224C37.6267 24.0468 37.8882 23.6243 37.2646 22.8196C36.8823 22.3167 36.1179 22.0753 35.5345 22.2966C35.2529 22.3972 33.9654 23.5237 32.6779 24.8313L30.304 27.1851L27.9503 24.8313C25.4558 22.3569 24.8925 21.9948 24.0878 22.2966Z" fill="#B54E21"/>
</svg>
