<svg width="121" height="86" viewBox="0 0 121 86" fill="none" xmlns="http://www.w3.org/2000/svg">
<path d="M10.6195 0.307312C9.46131 0.685478 7.71229 2.50542 7.35775 3.68719C7.14503 4.44353 7.07413 11.9596 7.07413 35.8551V67.054L4.94693 67.1722C2.32338 67.3377 1.16524 67.9522 0.408906 69.6303C-0.0165334 70.5994 -0.040169 71.1194 0.0307376 75.2319C0.101644 79.3682 0.148915 79.8881 0.645261 80.9754C1.33069 82.488 3.05609 84.1898 4.5924 84.8989L5.77417 85.4425L47.2073 85.5134L88.6403 85.5607L89.2076 84.9934C89.9639 84.2371 89.9639 83.3389 89.2076 82.6062L88.6403 82.0153H47.68C8.23227 82.0153 6.67232 81.9917 5.89235 81.5663C5.44327 81.3299 4.75784 80.739 4.35604 80.2663L3.64697 79.3682L3.57607 75.2319C3.50516 71.9939 3.57607 71.0248 3.81242 70.883C3.97787 70.7648 7.49957 70.6703 11.6121 70.6703H19.1046L19.5773 70.0558C20.1446 69.3231 20.1918 69.0394 19.8137 68.2122C19.3882 67.314 18.4428 67.125 14.3775 67.125H10.6195V35.9261V4.70352L11.2103 4.13627L11.7776 3.54538H45.5528H79.3279L79.9661 3.04903C80.817 2.38724 80.817 1.15819 79.9661 0.496391L79.3279 4.57764e-05L45.3873 0.0236816C21.2554 0.0473175 11.2103 0.118225 10.6195 0.307312Z" fill="#B54E21"/>
<path d="M85.4259 0.590973C85.095 0.898239 84.835 1.44186 84.835 1.77275C84.835 2.10365 85.095 2.64726 85.4259 2.95453L85.9932 3.54542H97.5982H109.203L109.771 4.13631L110.361 4.70356V35.9261V67.125H90.153H69.921L69.9919 64.0996L70.0628 61.0979L76.4444 60.9798C83.6769 60.8379 84.0314 60.767 85.9932 58.8053C87.7422 57.0326 88.3803 55.0236 88.3803 51.3837V49.3983H90.4603C92.8711 49.3983 94.0056 49.1147 94.9747 48.3111C96.3692 47.153 96.4401 46.5384 96.3692 38.1478L96.2982 30.5608L95.6128 29.6863C94.5729 28.3155 93.4147 27.89 90.6966 27.89H88.3803V25.9283C88.3803 21.0357 87.0095 18.3649 83.6769 16.8049L82.3533 16.1904L72.4027 16.1195L62.4285 16.0486L62.334 13.3069C62.2631 10.6833 62.2395 10.5652 61.6013 10.0216C61.2231 9.71429 60.7268 9.4543 60.4904 9.4543C60.2541 9.4543 59.7577 9.71429 59.3796 10.0216C58.7414 10.5652 58.7178 10.6833 58.6469 13.3069L58.5523 16.0486L48.5781 16.1195L38.6276 16.1904L37.304 16.8049C33.9714 18.3649 32.6005 21.0357 32.6005 25.9283V27.89H30.3079C27.5661 27.89 26.408 28.3155 25.368 29.6863L24.6826 30.5608L24.6117 38.1478C24.5408 46.5384 24.6117 47.153 26.0062 48.3111C26.9516 49.1147 28.1097 49.3983 30.4969 49.3983H32.5296L32.6714 52.1637C32.8132 55.5909 33.215 56.8199 34.7513 58.498C36.8313 60.767 37.1385 60.8379 44.5364 60.9798L50.918 61.0979L50.9889 64.0996L51.0598 67.1014L38.1785 67.1723C25.9116 67.2432 25.2971 67.2668 24.8244 67.6922C24.2335 68.2122 24.1626 69.4176 24.659 70.1031C24.9899 70.5285 25.4389 70.5521 34.8931 70.6703L44.7728 70.7885L44.891 73.1521C44.9619 74.452 45.151 75.752 45.2928 76.012C45.7655 76.8156 46.9473 77.7137 47.9163 77.9973C49.0981 78.3282 71.8827 78.3282 73.0645 77.9973C74.0336 77.7137 75.2154 76.8156 75.6881 76.012C75.8299 75.752 76.019 74.452 76.0899 73.1521L76.208 70.7885L96.2982 70.7176C107.36 70.694 116.625 70.7176 116.932 70.7885L117.476 70.9303L117.405 75.1374L117.334 79.3682L116.625 80.2663C115.159 82.0626 115.419 82.0154 104.783 82.0154C95.5419 82.0154 95.2819 82.039 94.6674 82.5117C93.8165 83.1972 93.8165 84.4026 94.691 85.088C95.3056 85.5843 95.4474 85.5843 105.256 85.5134C115.065 85.4425 115.23 85.4425 116.388 84.8989C117.925 84.1898 119.65 82.4881 120.336 80.9754C120.832 79.8882 120.879 79.3682 120.95 75.232C121.021 71.1194 120.997 70.5994 120.572 69.6304C119.816 67.9522 118.657 67.3377 116.034 67.1723L113.907 67.0541V35.8552C113.907 11.9597 113.836 4.44357 113.623 3.68723C113.245 2.41091 111.496 0.66188 110.22 0.283714C109.511 0.0709915 106.083 8.39233e-05 97.6218 8.39233e-05H85.9932L85.4259 0.590973ZM81.6442 19.8776C82.8496 20.2085 84.2441 21.603 84.575 22.8084C84.7168 23.3284 84.835 24.6756 84.835 25.8101V27.89H60.4904H36.1458V25.8101C36.1458 23.2575 36.4295 22.1702 37.3985 21.1302C38.8166 19.5939 37.9658 19.6412 60.3722 19.6176C74.5063 19.6176 80.9824 19.6885 81.6442 19.8776ZM32.6005 38.6442V45.853H30.7333C29.6933 45.853 28.7006 45.7821 28.4879 45.7112C28.157 45.593 28.1097 44.7421 28.1097 38.6678C28.1097 34.8625 28.1807 31.6717 28.2752 31.6008C28.3461 31.5062 29.3624 31.4353 30.5206 31.4353H32.6005V38.6442ZM84.7878 38.5733L84.7168 45.7348H60.4904H36.264L36.1931 38.5733L36.1458 31.4353H60.4904H84.835L84.7878 38.5733ZM92.8238 38.5024C92.8711 43.9149 92.8002 45.4985 92.5875 45.6639C92.422 45.7585 91.4057 45.853 90.3421 45.853H88.3803V38.6442V31.4117L90.5785 31.4826L92.7529 31.5535L92.8238 38.5024ZM84.835 51.4546C84.835 53.9127 84.5514 55.0236 83.7241 56.0163C82.4715 57.529 83.8423 57.4344 60.4904 57.4344C37.1385 57.4344 38.5094 57.529 37.2567 56.0163C36.4295 55.0236 36.1458 53.9127 36.1458 51.4546V49.3983H60.4904H84.835V51.4546ZM66.3993 64.0524V67.125H60.4904H54.5815V64.0524V60.9798H60.4904H66.3993V64.0524ZM72.4973 72.6084L72.4264 74.5702H60.4904H48.5545L48.4836 72.6084L48.4127 70.6703H60.4904H72.5682L72.4973 72.6084Z" fill="#B54E21"/>
<path d="M46.3564 35.997C45.9073 36.4697 45.8364 36.8242 45.8364 38.6205C45.8364 40.4877 45.8837 40.7241 46.4273 41.2441C46.7346 41.575 47.2782 41.835 47.6091 41.835C47.94 41.835 48.4836 41.575 48.7909 41.2441C49.3345 40.7241 49.3818 40.4877 49.3818 38.6914C49.3818 37.0369 49.3108 36.5879 48.8854 36.0679C48.2472 35.2643 47.0655 35.217 46.3564 35.997Z" fill="#B54E21"/>
<path d="M72.0955 36.0679C71.67 36.5879 71.5991 37.0369 71.5991 38.6914C71.5991 40.4877 71.6464 40.7241 72.19 41.2441C72.4973 41.575 73.0409 41.835 73.3718 41.835C73.7027 41.835 74.2463 41.575 74.5536 41.2441C75.0972 40.7241 75.1445 40.4877 75.1445 38.5733C75.1445 36.6824 75.0972 36.4224 74.6008 35.9733C73.8209 35.2406 72.71 35.2879 72.0955 36.0679Z" fill="#B54E21"/>
</svg>
