<svg width="25" height="27" viewBox="0 0 25 27" fill="none" xmlns="http://www.w3.org/2000/svg">
<path d="M12.3801 0C5.54009 0 0 5.90131 0 13.1873C0 20.4733 5.54009 26.3746 12.3801 26.3746C19.2201 26.3746 24.7602 20.4733 24.7602 13.1873C24.7602 5.90131 19.2201 0 12.3801 0ZM15.3224 19.626C14.1236 19.3875 12.6009 18.4083 11.5857 16.9138C11.2803 16.4643 11.3484 15.8379 11.7301 15.4621L13.8574 13.373C14.2763 12.962 14.3031 12.2664 13.9173 11.8202C13.5314 11.374 12.8794 11.3466 12.4595 11.7565L9.19944 14.9577C9.02302 15.1302 8.7909 15.239 8.55155 15.2511C7.34862 15.3148 6.36646 15.1698 5.58445 14.6928C5.02219 14.35 4.88704 13.5247 5.32241 13.0136C7.70557 10.2146 13.0197 7.50356 17.5539 7.63873C18.043 7.65302 18.4567 8.06072 18.5124 8.57832C18.8281 11.5059 17.816 17.1215 16.3097 19.2271C16.0807 19.5479 15.6969 19.7007 15.3224 19.626Z" fill="#32325F"/>
</svg>
