<svg width="27" height="25" viewBox="0 0 27 25" fill="none" xmlns="http://www.w3.org/2000/svg">
<path d="M26.2629 3.30314C25.9544 2.00364 25.0451 0.979156 23.8917 0.631616C21.7995 3.15228e-07 13.4118 0 13.4118 0C13.4118 0 5.02405 3.15228e-07 2.93181 0.631616C1.7784 0.979156 0.869082 2.00364 0.560612 3.30314C-3.99702e-08 5.66036 0 12.0883 0 12.0883C0 12.0883 -3.99702e-08 18.5163 0.560612 20.8735C0.869082 22.173 1.7784 23.1975 2.93181 23.5451C5.02405 24.1767 13.4118 24.1767 13.4118 24.1767C13.4118 24.1767 21.7995 24.1767 23.8917 23.5451C25.0465 23.1975 25.9544 22.173 26.2629 20.8735C26.8235 18.5163 26.8235 12.0883 26.8235 12.0883C26.8235 12.0883 26.8235 5.66036 26.2629 3.30314ZM10.7294 17.3226V6.85409L18.7765 12.0883L10.7294 17.3226Z" fill="#32325F"/>
</svg>
